<svg class="who-we-are--icons--lists--img" version="1.1" id="Layer_1" xmlns="http://www.w3.org/2000/svg" xmlns:xlink="http://www.w3.org/1999/xlink" x="0px" y="0px" viewBox="0 0 160 160" style="enable-background:new 0 0 160 160;" xml:space="preserve">
    <style type="text/css">
        .st0{fill-rule:evenodd;clip-rule:evenodd;fill:#BFD1E0;}
        .st1{fill-rule:evenodd;clip-rule:evenodd;fill:#32374A;}
    </style>
    <circle class="st0" cx="80" cy="80" r="80"></circle>
    <g>
        <path class="st1" d="M42.3,79.5c-1.8,10.4-1.9,25.2,12.5,24.6c2.5,0,3-3.8,0.4-4.2c-2.6-0.3-5-0.9-6.4-3c-2.6-5-1.2-11-0.5-16.5
            c0.6-3.3,1.3-7,0.1-10.4c-0.1-0.3-0.4-1-0.3-1.1c0.2-0.2,0.9-0.1,1.2-0.1c0.1,0,0.3,0,0.4,0.1c0.1,0,0.1,0,0.2,0
            c1.1,0.4,2.4,0.3,3.4-0.4c3.4-2.1,3.6-6.4,3.6-9.8c0.2-2.8-1.9-6-0.7-8.7c0.5-1.6,2.3-1.8,3.7-1.5c5.4,1,9.3-0.2,8.2-6.6
            c-0.4-2-1.1-4.5-0.1-6.4c0.1-0.1,0.1,0,0.1,0c0,0.1,0.1,0,0.6,0.2c1.2,0.3,2.2,1.3,3.3,1.9c2,1.4,4.2,2.5,6.6,3.3
            c0.5,1.8,1.1,4,3,5.4c2.1,1.6,5.1,1.6,7.4,0.6c2.4-1.1,3.9-3.6,5.7-5.1c0,0,0-0.1,0.1,0l0,0c0,0,0.1,0,0.1,0s0.3,0.1,0.3,0.1
            c1.2,0.4,2.5,0.7,3.5,1.2c4.7,2,7.2,8.3,5,12.9c-0.8,1-0.3,2.6,0.3,3.5c1,1.8,3.7,4.1,3.4,5.9c-0.1,1.1,0.1,2.1,0.2,3
            c0.5,2.3,1.2,4.8,1.6,7c0.3,1.4,0.6,2.9,0.3,4.1c-0.1,0.1-0.1,0.2-0.1,0.2l0,0c-0.3,0.3-0.7,0.8-1.1,1c-0.9,0.6-2,0.4-3.3,0.5
            c-1.7,0-3.7,0.4-5.4,1c-3.5,1.4-9.7,3.6-10.4,7.9c0.1,5.1,2.9,9.7,6.8,12.9c2,1.7,5.6,2.1,6.6,4.8c0.3,1-1,1.6-1.6,2.1
            c-2.4,1.5-6.2,4.7-4.2,8.1c0.7,1.1,1.6,2.6,1.6,3.9c-2.1-0.6-4.1-2.3-6.5-2.6c-1.4-0.1-3.1,0.4-4.3,0.9c-1.9,0.7-4.4,1.8-6.2,2.1
            c-1.3,0.2-1.7,0.1-2.9-0.6c-3.4-2.1-8-4.9-12.6-3.8c-2.7,0.3-5.8,2-8.2,1.9c-2.3-2.6,0.9-7.4,2.5-9.9l0,0c0.7-1,0.5-2.4-0.4-3.2
            c-1-0.9-2.5-0.8-3.4,0.3c-2.4,2.8-4.1,5.8-4.9,9.6c-0.7,3.5,1.2,8.1,5.1,8.8c5.6,1,10.1-4.2,15.2-1c2.1,1,4.5,2.8,7.3,3.1
            c3.8,0.2,7-1.8,10-3.4c1.2-0.6,1.9-1.2,3.2-0.9c2.3,0.4,4.8,2.8,7.4,1.5c0,0,0.1-0.1,0.1-0.1c0.1-0.1,0.2-0.1,0.2-0.2
            c2.1-1.8,0.9-4.6-0.1-6.5c-1.1-1.9-1.1-1.7-0.5-2.8c1.1-1.7,3.9-2.9,5.4-4.4c2.5-2.9,0-6.5-2.6-8.2c-1.3-0.9-2.6-1.4-3.8-2.5
            c-2.4-2.2-4.3-6-4.4-9.1c0,0,0,0.2,0,0.2c0,0.1,0-0.1,0.2-0.2c2.3-1.9,5.5-2.9,8.3-3.8c1.9-0.7,3.6-0.1,5.7-0.6
            c1.9-0.1,3.7-1.2,5.1-2.5c4.5-4.4,0.6-11.8-1-16.6c-0.6-1.8-0.3-3.6-1.2-5c-1-1.9-2.5-3.4-3.7-5c2-3.7,1.3-8.4-0.5-12.1
            c-1.7-3.7-5.3-6.2-9-7.7c-0.2-0.1-0.7-0.4-1-0.5c-1.4-0.7-3.3-0.4-4.6,0.3c-1.9,0.9-2.6,2.2-4,3.3c-0.9,0.7-1.8,1.1-2.7,0.7
            c-0.6-0.7-0.5-1.5-1.1-2.8c-0.5-2.1-2.7-3.4-4.6-3.8c-1.6-0.6-3.2-1.3-4.8-2.2c-1.6-1-3.1-1.8-5.2-2.2c-4.3-0.8-7.2,2.9-6.6,7.1
            c0.2,1.7,0.6,3.3,1.1,4.9c0.2,0.9,0.4,1.6,0.2,2.2c0,0.1,0,0.1-0.1,0.2c-0.2,0.1-0.8,0.3-1.4,0.3c-1.5,0-3.3-0.1-4.9-0.1
            c-4.4,0.3-6.2,5.4-5.5,9.1c0.5,3,0.6,6.9-1.3,9.4c-5.7-1.9-10.7,1.7-8.8,7.9C43.6,73.8,42.5,76.8,42.3,79.5z M98.2,121.9
            L98.2,121.9L98.2,121.9L98.2,121.9L98.2,121.9C98.2,121.9,98.2,121.8,98.2,121.9L98.2,121.9z M51.3,63.8
            C51.2,63.8,51.2,63.8,51.3,63.8c-0.2,0.2-0.3,0.2-0.2,0.1C51,63.8,51.2,63.8,51.3,63.8z M48,68.9C47.9,69,47.9,69,48,68.9
            C47.9,69,47.8,69,48,68.9C47.8,69,47.9,69,48,68.9z"></path>
        <path class="st1" d="M147.9,74.7c-0.9-9.8-4.3-19-9.1-27.5c-4.6-8.4-10.9-15.9-18.2-22C105,11.8,86.5,7.1,66.3,10.7
            c-8.4,1.5-16.8,4.8-23.8,9.8c-0.9,0.6-1.1,1.7-0.6,2.7c0.6,1,1.8,1.3,2.8,0.8l0,0c21-11.6,47.7-10.9,68.7,0.6
            c12.4,6.9,21.1,19.6,25.2,33.1c7.7,23.5,3,52.2-16,69.2c-7.5,6.8-17,10.8-26.6,13.2c-16,3.9-33.4,4.2-48.6-2.9
            c-15.6-7.4-26.8-20.1-31.2-36.9c-1.7-6.8-2-14-1.7-21c1.1-15,6.8-29.5,15.4-41.9l0,0c0.7-1.1,0.5-2.4-0.5-3.3
            c-1.1-0.9-2.5-0.7-3.4,0.4c-5.4,6.6-9.8,14.2-12.7,22.2c-1.5,4-2.6,8.2-3.4,12.5c-1.2,7.5-1.5,15.1,0,22.6c0.3,1.8,1,4.5,1.4,6.3
            c0.3,1.1,1.2,3.6,1.5,4.6c1.3,3.5,2.8,7,4.7,10.3c1.1,2.2,2.8,4.7,4.1,6.8c1.4,2,3.3,4.3,4.9,6.2c5.2,5.7,11.4,10.5,18.1,14.2
            c20.6,10.9,47,10.3,67-1.6C134.5,125.3,149.8,101.6,147.9,74.7z"></path>
    </g>
    </svg>