<svg class="who-we-are--icons--lists--img" version="1.1" xmlns="http://www.w3.org/2000/svg" xmlns:xlink="http://www.w3.org/1999/xlink" x="0px" y="0px" viewBox="0 0 160 160" style="enable-background:new 0 0 160 160;" xml:space="preserve">
    <style type="text/css">
        .st0{fill-rule:evenodd;clip-rule:evenodd;fill:#BFD1E0;}
        .st1{fill-rule:evenodd;clip-rule:evenodd;fill:#32374A;}
    </style>
    <g id="Layer_2">
        <circle class="st0" cx="80" cy="80" r="80"></circle>
    </g>
    <g id="Layer_1">
        <g>
            <g>
                <path class="st1" d="M143.4,56.5c-0.3-3,0-7.2-3.5-8.7c-2-0.7-4.1,0.6-5,2.1c-2.8,4.4-3.6,9.8-4.8,14.7
                    c-1.1,4.9-2.1,9.8-3.6,14.6c-6.5-0.5-8.6,5.2-12.2,9.1c-2.3,2.6-5.2,4.5-8.4,5.8c-3.4,1.4-6.9,2.5-10.2,4.7
                    c-5.7,3.6-8.5,10.5-8.8,17.1c-0.2,3.9,1.2,7.6,2.2,11.1c1.5,4.6,2.7,9.2,2.4,14c0.2,2.2,3.5,2.2,3.5-0.2l0,0
                    c-0.3-5-1.6-9.9-3.2-14.6c-0.9-3.4-2-6.7-1.6-10.1c0.7-5.4,3.2-10.7,7.9-13.6c3.6-2.5,8.4-4.9,12.2-7.4c3.1-2.1,5.8-4.8,8.3-7.6
                    c1.7-1.8,3.5-4.2,6.1-4c0.7,0,1.7,0.2,2,0.5c0,0-0.1-0.1-0.2-0.1c-0.1-0.1-0.1-0.1-0.1-0.1c-0.8,2.8-2.9,5.3-4.4,7.8
                    c-4,6-8.8,11.5-12.7,17.8c-1.1,1.9,1.5,3.7,2.9,2l0,0c2.8-3.8,5.9-7.5,9.1-11.1c3.6-4.3,15.1-15.1,7.9-20.4
                    c2.2-7.4,3.9-15.2,6.5-22.4c0.7-1.9,1.4-3.9,2.7-5.3c0.9,4,0.4,8.5,0.4,12.8c-0.5,9.7-0.4,19.7-3.5,28.9
                    c-2.8,9.5-12.7,14-18.6,21.6c-2.8,3.5-5.1,7.9-6,12.4c-0.8,4.3-0.2,8.9,0.2,13.2c0.1,0.9,0.8,1.6,1.8,1.6c0.9,0,1.7-0.8,1.7-1.9
                    l0,0c-0.8-10.7,0.4-17.6,9.1-24.6c8.5-7.4,14.2-14,15.7-25.7C140.8,79.2,143.6,68.1,143.4,56.5z M138.8,51.8L138.8,51.8
                    C138.8,51.8,138.9,51.8,138.8,51.8z"></path>
                <path class="st1" d="M74.6,115.5c-1.9-13-10.4-17.6-21.8-21.5c-3.1-1.3-5.9-3.9-7.8-6.7c-2.1-2.9-4.9-6.6-9.2-6.3
                    c-1.7-4.8-2.9-9.8-4.2-14.8c-1.4-4.9-2.3-10.1-5.1-14.6c-1-1.5-2.9-2.9-4.9-2.1c-5.8,2-3.2,20.8-2.3,25.9
                    c0.6,2.8,1.2,5.5,1.8,8.3c1.5,8.3,2.2,17.9,7.9,24.8c10.6,12.6,20.3,14.4,17.1,33.9l0,0c-0.3,3.9,5.3,4.4,5.5,0.4
                    c0.2-10,0.3-17.6-6.7-25.7c-5.3-6.3-13-10.6-17-17.9c-4-7.4-3.9-16.3-4-24.5c-0.1-7.1-1.7-14.4-0.7-21.4c2.8,3.9,3.7,9,4.9,13.6
                    c0.9,4.2,2.4,11,3.5,15.1c-6.9,6,9.3,20.2,12.8,25.5c1.7,2,3,4.2,4.3,6.4c2.4,2.8,6.5-0.7,4.3-3.5l0,0c-2.9-3.4-6.4-8.1-9.2-11.6
                    c-3-3.9-7.6-8.8-9.1-13.4c0-0.1,0,0-0.1,0c-0.1,0.1-0.1,0.1-0.1,0.1c0.2-0.3,1.5-0.6,2.1-0.6c2.6-0.2,4.5,2.1,6.2,4
                    c3.4,3.7,6.9,7.5,11.2,10.2c7,4.1,14.8,6.2,16.6,15.2c1.8,7-2.3,13.4-3.6,20.3c-0.6,2.5-0.8,5-0.6,7.7c0.1,0.9,0.8,1.7,1.8,1.8
                    c1.1,0.1,2.1-0.7,2.1-1.8l0,0c0.4-4.6,1.6-9,2.9-13.5C74.5,124.7,75.8,119.9,74.6,115.5z M22.8,53.4
                    C22.7,53.4,22.8,53.4,22.8,53.4C22.7,53.3,22.7,53.3,22.8,53.4L22.8,53.4z"></path>
                <path class="st1" d="M89.5,90.1c10.9-10.7,24.8-33.5,26.6-48.7c1.5-10.5-5.7-18.2-16.4-17.1c-7.6,1.1-13.3,6.7-18.1,12.3
                    c-7.7-10.2-24.2-19.8-35.9-10.3c-5.3,4.8-6.6,12.8-5.1,19.5c3,13,13.2,23,21.3,33.1c0,0,5.1,6.3,5.1,6.3
                    c3.3,3.6,5.8,8.3,10.4,10.7c4,2,8.1-1.5,10.9-4C88.3,91.9,89.5,90.1,89.5,90.1z M86.3,86.8c0,0-1.4,1.4-1.4,1.4
                    c-1.9,1.7-3.8,4.8-6.4,4.1c-4-1.7-6.8-5.9-9.8-9.2c-3.4-4.2-6.8-8.4-10-12.8c-6-8.7-14.4-20.3-13.6-31.3
                    c0.8-9.6,7.7-13.6,16.8-11c6.5,1.8,12.3,6.8,16.4,12.3c-2.9,4.1-5.6,8.3-7.9,12.7c-0.5,0.9-0.2,2.1,0.7,2.6
                    c0.9,0.7,2.1,0.4,2.7-0.6c2.4-3.5,4.6-7.2,7.1-10.6c0.8,1.4,1.4,2.9,2,4.3c1.7,3.1,6.4,0.9,4.9-2.5l0,0c-1.1-2.1-2.2-4.2-3.5-6.2
                    c4.3-5.3,9.2-10.6,15.9-12c8-0.9,13.3,4.5,12.1,12.7c-1.4,10.4-7.3,19.8-12.9,28.5C95.4,75.4,90.8,81.1,86.3,86.8z"></path>
            </g>
        </g>
    </g>
    </svg>