<svg class="who-we-are--icons--lists--img" version="1.1" xmlns="http://www.w3.org/2000/svg" xmlns:xlink="http://www.w3.org/1999/xlink" x="0px" y="0px" viewBox="0 0 160 160" style="enable-background:new 0 0 160 160;" xml:space="preserve">
    <style type="text/css">
        .st0{fill-rule:evenodd;clip-rule:evenodd;fill:#BFD1E0;}
        .st1{fill-rule:evenodd;clip-rule:evenodd;fill:#32374A;}
    </style>
    <circle class="st0" cx="80" cy="80" r="80"></circle>
    <g>
        <path class="st1" d="M44.5,39.6c2.2,8.9,4.7,17.9,10.1,25.5c2.4,2.8,5,5.4,8,7.6c4.2,3.1,9.8,6.5,15.3,4.8c0.3,1.9,0,6.4,3,5.9
            c1.1-0.2,1.7-1.3,1.5-2.3c-0.7-3.1-0.4-6.3,0.7-9.3c2.3-6.3,7.6-10.9,13-14.7c4.2-3,8.2-6.1,12.7-8.7c2.3-1.5,5.3-3.1,8-3.1
            c0.6,7.8-1.8,15.8-5,22.9c-1.6,3.5-3.8,6.6-6.4,9.3c-1,0.7-2.1,1.8-2.9,2.5c-4.4,3.4-9.5,8-15.3,7.3c1.5-3.5,3.5-6.8,5.7-10.2
            c1.6-0.5,7.9-2.3,11.8-1.8c0.7,0.1,1.5-0.4,1.5-1.1c0.1-0.7-0.3-1.5-1.1-1.6c-3.1-0.4-7.1,0.3-10.1,1c2.6-3.8,5.1-7.5,8.3-10.8
            c0.1,0,0.3,0,0.4-0.1c1.1-0.5,2.3-0.6,3.4-0.9c1.1-0.2,2.3-0.1,3.4-0.2c0.3,0,0.5-0.1,0.7-0.3c0.3-0.2,0.4-0.6,0.4-1
            c0-0.3,0-0.6-0.1-0.8c-0.2-0.4-0.7-0.5-1.1-0.6c-1.2-0.2-2.4-0.2-3.6,0.1c0.2,0,0.5-0.5,0.6-0.6c0.9-0.8,1.6-1.6,2.5-2.4
            c1.3-1.2,0.1,0,1.4-1.2c0.1-0.1,0.1-0.1,0.2-0.1c1.8-1.9-1-4.4-2.7-2.7c-4.7,4.9-7,7.3-11.5,12.6c-0.8-2.3-1.5-3.4-1.6-3.5
            c-1-1.5-3.2-0.2-2.4,1.4c0,0,1.2,2.1,1.9,4.8c-4,5.3-7.8,10.3-11.3,16.1c-0.8,1.3-1.4,2.7-1.9,4.3c-0.1,0.6-0.2,1.1,0.1,1.9
            c0.2,0.4,0.2,0.7,0.6,1c0.2,0.3,0.3,0.3,0.6,0.6c5.8,3.7,12.8-0.1,17.5-3.7c3-2.3,5.6-4.8,8-7.6c2.4-3.1,4-6.5,5.3-9.9
            c2.6-6.8,4.8-13.7,5.8-21c0.5-3.4,0.4-6.5-3.8-7.5c-0.4-0.6-0.9-0.7-1.5-0.7c-1,0-2,0.2-3,0.5c-10.4,3.3-19.1,9.7-26.2,17.9
            c-1.3-14.2-23.3-31.7-36.9-33.3c-0.3,0.4-0.8,0.5-1.3,0.7c-1.5,0.4-2.9,1.3-3.5,2.7c-0.4,0.9-0.4,1.5-0.4,2
            C43.3,34.2,43.9,36.9,44.5,39.6z M116.8,45.2C116.8,45.2,116.8,45.2,116.8,45.2C116.8,45.2,116.8,45.2,116.8,45.2z M46.6,31
            c0-0.4,0.1-0.7,0.1-0.6c0,0.1-0.1,0.2,0,0.1c2.8,0,5.6,1.7,8,3.1c4.4,2.6,8.5,5.7,12.7,8.7c7.5,5,15.1,12.8,13.9,22.5
            c-0.7,1.2-1.3,2.5-1.8,3.8c-3.4-5.7-7.3-10.8-11.3-16.1c0.7-2.6,1.6-4.3,1.6-4.3c0.8-1.6-1.3-2.9-2.4-1.4c-0.1,0.1-0.4,0.8-1.3,3.1
            c-4.5-5.3-7.7-8.5-12.5-13.4c-0.8-0.7-1.9-0.8-2.7,0c-0.7,0.8-0.8,1.9,0,2.7c0.1,0.1,0.1,0.1,0.2,0.1c2,1.6,3.7,3.2,5.5,5
            c-1.4-0.2-3.1-1.2-4.4-0.3c-0.8,0.6-0.4,2.2,0.5,2.4c0.3,0.1,0.6,0,0.9,0c1.1-0.2,2.3,0,3.3,0.4c0.8,0.3,2.2,0.6,2.8,1.1
            c0.1,0.1,0.2,0.1,0.4,0.1c3.2,3.3,5.7,7,8.3,10.8c-1.8-0.5-9.2-2.7-9,0.6c0.1,0.7,0.8,1.2,1.5,1.1c3.9-0.5,8.1,1.2,9.7,1.8
            c2,3.4,4.2,6.7,5.7,10.2c-2.5,0.5-4.7-0.4-7.1-1.6c-3-1.6-5.6-3.5-8.2-5.7c-0.9-0.7-1.9-1.8-2.9-2.5c-2.6-2.7-4.8-5.9-6.4-9.3
            C48.5,46.5,46.1,38.6,46.6,31z"></path>
        <path class="st1" d="M132.2,103.7c-1.6-7.4-15.9-2-20.7-0.9c-5.3,1.4-10.3,2.8-15.6,3.8c-2.7-6.3-9.4-5.5-14.7-7
            c-3.6-1-6.8-2.6-9.6-5.1c0,0-2.9-2.5-2.9-2.5c-4-3.6-9.2-7-14.9-7.2c-3.6-0.2-7.1,0.5-10.3,1.8c-1.9,0.7-4.2,1.7-5.6,3
            c-4.3,3.3-7.2,7.4-11.4,10.6c-2,1.6-4,2.9-6.3,4c-0.9,0.5-1.4,1.7-0.9,2.7c0.6,0.8,1.6,1.2,2.6,0.7c2.3-1.4,4.5-3,6.5-4.8
            c4.8-3.9,8.6-9.7,14.5-12c9.9-3.6,14.9-0.9,23.2,4.5c1.9,1.2,4.8,3.1,6.7,4.1c3.4,2,7.4,3.2,11.3,4.1c2.6,0.6,5.7,1.4,6.8,3.8
            c0.3,0.5,0.4,1,0.5,1.4c0.1,0.4,0.1,0.8,0,0.7c0,0,0-0.3,0-0.3c-1.8,0.4-4,0.4-5.9,0.1c-3.8-0.4-7.6-0.6-11.4-1.4
            c-5.1-0.8-10.3-1.7-15.6-2.1c-0.9-0.1-1.8,0.6-2,1.6s0.6,2,1.6,2.1c5,0.8,10,1.9,15,3.1c5.2,1.1,10.4,3.1,15.8,2.7
            c3.4-0.2,6.9-1.4,7.4-5.3c8.2-1.5,16.3-3.9,24.5-4.9c2.3-0.3,4.3-0.6,6.4-0.1c-3.4,2.9-7.8,4.7-11.9,6.7
            c-5.4,2.6-10.9,5.1-16.5,7.4c-13.4,5.4-20,5.3-33.4-0.5c-7.4-3.1-15.8-4.7-23.7-2.3c-4.5,1.4-8.4,4.3-12.4,6.7
            c-1.9,1.4-0.2,4.3,2,3.2c5-2.9,9.9-5.9,15.7-6.2c4.9-0.4,9.7,1.6,14.3,3.2c3.6,1.4,7.1,2.5,11.2,3.3c9.5,2.1,18.8-1.6,27.6-4.9
            c8.7-3.1,17.5-5.5,25.6-10.2C128.4,109.6,132.6,107.7,132.2,103.7z M127.9,104.7C128,104.6,128,104.7,127.9,104.7L127.9,104.7z"></path>
    </g>
    </svg>