<svg class="who-we-are--icons--lists--img" version="1.1" xmlns="http://www.w3.org/2000/svg" xmlns:xlink="http://www.w3.org/1999/xlink" x="0px" y="0px" viewBox="0 0 160 160" style="enable-background:new 0 0 160 160;" xml:space="preserve">
    <style type="text/css">
        .st0{fill-rule:evenodd;clip-rule:evenodd;fill:#BFD1E0;}
        .st1{fill-rule:evenodd;clip-rule:evenodd;fill:#32374A;}
    </style>
    <g id="Layer_2">
        <circle class="st0" cx="80" cy="80" r="80"></circle>
    </g>
    <g id="Layer_1">
        <g>
            <path class="st1" d="M64.9,87.8C64.9,87.8,64.9,87.8,64.9,87.8 M43,78.7C42.9,78.7,42.9,78.7,43,78.7 M121.2,74.1
                c-0.2-3-0.7-5.9-1.3-8.9c-0.4-1.5-2.2-2.2-3.5-1.3c-6.6,4.6-13.5,9.5-20.9,12.7c-2.6,1.1-5.5,1.9-8.3,1.4
                c-0.5-0.1-1.2-0.4-1.3-0.7c0.2-0.9,1.4-1.6,2.3-2c7.4-3.2,29.1-13.3,25.5-23.5c-2.8-7.3-8-13.4-13.1-19.2c-1-1.1-3.1-0.7-3.3,0.8
                c-1.1,3.4-4.4,11.6-8.5,10.9c1.2-3.7,3.5-6.8,4.9-10.6c1-2.3,2-5.4,0.8-8c-0.8-2.5-2.9-4.7-4.4-6.5c-1.6-1.8-3.1-3.4-5-5h-0.2
                c-3-2.6-11.8,7-13.5,9.4c-0.2,0.3-0.7,1-1,1.3c-0.6,1-0.9,2.4-0.9,3.3c0.3,7.1,4.5,13.7,3.1,20.8c-2.7-5.5-4.1-11.9-5.4-17.9
                c-0.2-1.4-1.8-2-3-1.3c-2.7,1.8-5.2,4-7.2,6.7c-1.1,1.7-2.5,4.1-3.1,6.1c-1.8,7.3,7,17.1,10.6,23.1c-4.7-4.6-8.2-10.5-11.3-16.3
                c-0.7-1.2-2.3-1.7-3.3-0.5C45,54.4,41.6,63.3,46.4,70c3.3,4.3,8,7.8,12.1,11.4c2.1,1.9,4.8,3.7,6,6.3c-4.2-0.8-8.3-3.8-11.7-6.5
                c-1.1-1.3-2.5-2.6-3.5-3.9c-1.8-1.9-4-4.3-7-3.8c-6.4,1.2-6.1,13.1-5.3,18c1.2,7.1,6,13.7,12.1,17.5c8.2,5.4,18.4,0.8,25.4-4.2
                c0.5,9.3,1.9,18.6,4.1,27.7c1.7,5.8,3.7,11.6,6.7,16.8c0.3,0.5,0.9,0.8,1.5,0.7c0.8-0.1,1.2-1,1-1.7c-4-15.4-7.4-30.8-8.7-46.7
                c1.6-1,3.1-2.3,4.6-3.4c1.9-1.4-0.1-4.1-2-3c-1,0.6-1.9,1.2-2.8,1.8c-0.9-13.8-0.4-27.8,1.5-41.6c0.1-0.8-0.4-1.6-1.3-1.7
                c-0.8-0.1-1.6,0.4-1.8,1.3c-0.6,3.9-1.2,7.9-1.7,11.9c-1.2,11-1.8,22.2-1.5,33.3c-6.3,3.9-14.2,8.9-21.5,5.3
                c-5.3-3.2-9.1-8.6-10.4-14.6c-0.6-3.7-0.8-8.3,1-11.8c0.8,0.3,1.8,1.3,2.5,2C49.4,85,54,87.8,58.9,90c2.5,0.8,6.1,2.7,8.6,0.6
                c2-2,0.2-4.6-1.4-6.1c-1.7-1.7-3.6-3.2-5.4-4.7c0,0-3.7-3.7-3.7-3.7c-8.4-7-13.3-12-5.9-22.4c2.8,5.3,10.8,22.7,18.7,17.6
                c2.4-2,1-5.4-0.2-7.5c-2.3-3.9-5-7.6-7.5-11.3c-1.7-2.7-3.7-5.7-3.5-8.8c1-3.3,2.9-6.4,5.4-8.8c1.2,4.1,2.5,8.2,4.1,12.3
                c0.7,1.7,1.5,3.5,2.9,5c4,3.1,5-3.9,4.7-6.5c-0.2-4-1.4-8.2-2.3-12c-0.4-2.2-1.2-4.6-0.5-6.6c2.7-3.3,6.1-6.5,9.8-8.5
                c2.7,2.7,5.6,5.7,7.3,9.1c-0.1,3.6-2.2,6.7-3.7,10.1c-0.9,2-2.2,4-2.4,6.3c0,0.5-0.1,1.1,0.2,1.9c0.1,0.2,0.3,0.7,0.5,0.9
                c6.8,6.6,13.6-2.9,15.5-9c4.1,4.5,8.2,9.3,10.6,15c0.3,0.5,0.3,1,0.3,1.6c-1.2,6.6-11.3,12.1-16.9,15.2
                c-3.1,2.2-12.9,4.2-10.2,9.3c6.8,6.7,25.3-5.8,32.1-9.6c0.7,7.1,0.8,14.5-0.7,21.5c-1.9,9.9-10.6,19.7-21.4,16.9
                c-2.4-0.6-4.7-2-6.7-3.6c-0.8-0.7-2.1-0.6-2.9,0.2c-0.8,0.8-0.7,2.2,0.1,3c2.3,2.1,5.1,3.9,8.2,4.9c9.5,3.1,20-2.9,24.4-11.4
                C121.5,92.5,121.9,82.9,121.2,74.1"></path>
        </g>
    </g>
    </svg>