<svg class="ib-mm-logo-white" version="1.1" id="Capa_1" xmlns="http://www.w3.org/2000/svg" xmlns:xlink="http://www.w3.org/1999/xlink" x="0px" y="0px" viewBox="0 0 573.5 391.3" style="enable-background:new 0 0 573.5 391.3;" width="80px" xml:space="preserve">
<style type="text/css">
    .ib-mm-logo-white__transparent{fill: #ffffff}
</style>
<path class="ib-mm-logo-white__transparent" d="M530.1,148.1c-3.1-10.8-5.8-21.6-8.9-32.7c-2.7-11.2-5.8-22.3-8.5-33.5c-3.1-11.2-6.2-22.7-11.9-34.6
    c-1.5-3.1-3.1-6.2-5.4-9.2c-1.2-1.5-2.7-3.5-4.6-5c-1.9-1.5-4.6-3.5-8.1-4.6c-3.5-1.2-8.1-0.8-11.2,0.4s-5.4,2.7-7.3,4.2
    c-0.4,0.4-0.8,0.8-1.2,1.2l-0.8,0.4c0,0-0.8,0.8-1.2,1.2c-1.2,1.5-1.9,2.7-2.7,3.8c-1.2,1.9-1.9,3.8-2.7,5.4
    c-2.7,6.2-4.2,11.9-5.8,17.7c-1.5,5.8-3.1,11.2-4.6,16.9c-2.7,11.2-5.4,22.3-8.1,33.5c-5,22.3-10,44.7-14.2,67
    c-0.8,4.2-1.9,8.9-2.7,13.1c-0.4-3.5-1.2-6.9-1.5-10c-3.1-22.7-5-45.4-6.5-68.1c-1.5-23.1-2.7-45.8-6.2-69.3
    c-0.8-5.8-1.9-11.9-3.8-18.5c-0.4-1.5-1.2-3.5-1.9-5c-0.8-1.9-1.5-3.8-3.5-5.8c-0.8-1.2-1.9-2.3-3.5-3.5c-0.8-0.8-1.9-1.2-3.1-1.9
    c-0.4-0.4-1.2-0.4-1.9-0.8l-1.2-0.4h-0.8c-3.1-0.8-6.2-0.4-9.2,0.4c-5.8,1.5-9.2,4.2-12.3,6.5c-3.1,2.7-5.4,5.4-7.7,7.7
    c-4.2,5.4-7.7,10.4-10.8,15.8c-6.2,10.8-11.2,21.2-15.8,32.3c-4.6,10.8-8.9,21.6-12.7,32.7c-7.7,21.9-14.2,43.9-21.2,65.1
    c-0.4,0.8-0.4,1.5-0.8,2.3l-7.3-25.4c-6.2-22.3-12.7-44.7-18.9-67l-10-33.5c-1.5-5.4-3.5-11.5-6.5-18.1c-1.5-3.5-3.8-6.9-6.5-10
    c-3.1-3.5-6.5-6.2-10.8-8.5c-4.2-1.9-8.9-3.5-14.2-3.5s-11.5,1.9-15.8,5c-4.6,3.5-7.7,7.7-9.6,11.2c-1.9,3.8-3.5,7.3-4.2,10.4
    c-3.8,11.9-6.5,23.1-9.2,34.6c-5,22.7-9.2,45.8-13.1,68.5s-6.5,45.4-9.6,68.1c-1.5,10.8-3.1,21.9-6.2,31.9c-0.4-1.5-0.8-2.7-1.2-4.2
    c-5.4-21.6-7.3-44.7-9.6-67.7c-1.9-23.1-3.1-46.2-4.6-69.3c-0.8-11.5-1.5-23.1-2.7-35c-0.8-5.8-1.2-11.5-2.3-17.7
    c-0.8-6.2-1.9-11.9-3.8-19.2c-0.8-1.9-1.2-3.8-3.1-6.9l-0.8-1.5c-0.4-0.4-0.8-1.2-1.2-1.5c-1.2-1.5-2.3-3.1-6.2-5
    C117.4,8,117.4,8,117,7.6l-1.2-0.4c-0.8-0.4-1.5-0.4-2.3-0.4c-1.5-0.4-3.1-0.4-4.6-0.4c-6.2,0.4-9.6,2.7-12.3,4.2
    c-2.7,1.9-4.2,3.5-5.8,5C85.1,21.8,82,27.6,78.5,33c-6.2,11.2-11.2,22.3-15.4,33.5c-2.3,5.8-4.2,11.2-6.2,16.9s-3.8,11.9-5.4,17.3
    c-3.1,11.2-6.5,22.3-9.2,33.5c-5.8,22.7-11.2,45.4-16.2,68.5c-4.6,23.1-9.2,45.8-14.6,68.5c-0.4,0.8-0.4,1.9-0.4,2.7
    c-0.8,9.6,6.2,18.1,15.8,18.9S45,286.7,45.8,277c1.9-22.7,5.8-45.4,10.8-67.7c4.6-22.3,10.8-44.3,16.9-66.2l10-32.7
    c1.5-5.8,3.1-10.8,5-15.8c1.9-5.4,3.8-10.4,5.8-15.4c3.5-8.5,6.9-16.9,10.8-24.6c0.8,3.5,1.5,6.9,1.9,10.4l6.5,33.9l12.3,68.1
    l5.8,34.3c1.9,11.5,3.8,23.1,6.9,34.6c0.8,3.1,1.5,5.8,2.3,8.9c0.4,1.5,1.2,3.1,1.9,4.6c0.8,1.5,1.5,3.5,3.5,5.8
    c1.2,1.2,2.3,2.7,5.4,3.8c1.5,0.4,3.8,0.4,5,0.4l3.5-1.2c3.8-1.9,5-3.8,6.2-5.4c2.3-3.5,3.8-6.2,5.4-9.2
    c5.4-11.5,8.9-22.7,12.3-33.9c14.6-45,21.2-90.8,29.3-135.5c1.9-11.2,4.2-22.3,6.9-32.7c0.8-2.3,1.2-4.2,1.9-5.8
    c0.8-1.5,1.2-1.9,1.2-1.9s-0.4,0,0.4-0.4c0.4,0,1.5,0,2.3,0.4c1.2,0.4,2.3,1.2,3.1,1.9c1.2,1.2,2.3,2.7,3.1,4.2
    c1.9,3.5,3.8,8.9,5.8,14.2c3.8,10.8,7.3,21.6,10.8,32.7c13.5,42.3,23.1,86.2,33.5,130.1c-1.9,5.8-3.8,11.5-6.2,17.3
    c-7.7,21.2-15.8,42.3-24.6,63.1c-8.9,20.8-18.5,41.2-30,60.8c-0.4,0.8-0.8,1.5-1.2,2.3c-3.5,8.9,1.2,18.9,10,22.3
    c8.9,3.5,18.9-1.2,22.3-10c8.5-21.6,17.7-42.7,26.9-63.9c5.4-12.3,10.8-25,15.8-37.3c7.3,27.7,15,55.4,25,82.4
    c1.9,5.8,8.1,9.2,14.2,8.1c6.9-1.5,11.2-8.1,9.6-14.6v-0.4c-1.2-5.8-2.7-11.2-3.8-16.9l-4.2-16.6c-2.7-11.2-5.8-22.3-8.9-33.5
    c-5-17.3-9.6-34.6-14.6-52.4c6.2-15.8,11.5-31.6,16.9-47.7c3.8-11.2,6.9-22.3,10-33.1l9.6-32.7c6.5-21.6,13.1-43.1,21.6-62.7
    c2.3-4.6,4.6-9.6,6.9-13.5c1.2-1.9,2.7-3.8,3.8-5c0-0.4,0.4-0.4,0.4-0.4s0,0.4,0.4,0.4c1.9,4.2,3.5,9.6,4.6,15
    c2.7,10.8,4.2,21.9,5.8,33.1c1.5,11.2,2.7,22.3,3.8,33.9c1.9,22.7,3.1,45.4,3.1,68.5c0,11.5,0,23.1,0.4,34.6
    c0,5.8,0.4,11.5,0.8,17.7c0.4,3.1,0.8,6.2,1.5,10c0.4,1.9,0.8,3.8,1.9,6.5c0.4,0.8,0.8,1.5,1.5,2.7c0.4,0.4,0.8,1.2,1.5,1.9l1.2,1.2
    c0.4,0.4,0.8,0.8,1.5,1.2s1.2,0.8,2.3,1.2c0.8,0.4,1.9,0.8,3.1,1.2c1.2,0.4,2.3,0.4,3.8,0.4c1.2,0,1.9,0,3.1-0.4
    c3.8-0.8,6.2-2.3,7.3-3.5c2.7-2.3,3.5-3.8,4.2-5c0.8-1.2,1.5-2.3,1.9-3.1c1.2-1.9,1.5-3.5,2.3-5c1.5-3.1,2.3-6.2,3.1-9.2
    c1.9-5.8,3.5-11.5,4.6-17.3c2.7-11.5,5-22.7,7.3-33.9c4.2-22.7,7.7-45,11.2-67.7c1.9-11.2,3.8-22.3,5.8-33.5
    c1.2-5.4,1.9-11.2,3.5-16.6c1.2-5.4,2.7-10.8,4.2-15c0.8,1.2,1.2,2.3,1.9,3.5c4.2,8.9,7.3,19.6,10,30.4c2.7,10.8,5,21.9,7.3,33.1
    c2.3,11.2,4.6,22.7,7.3,33.9l15.4,66.6l14.6,65.8c1.2,6.2,6.9,10.4,13.1,10c6.9-0.4,12.3-6.5,11.5-13.5
    C555.8,236.6,542,191.6,530.1,148.1z"></path>
</svg>