<svg class="menu-basket menu-icon" version="1.1" id="Capa_1" xmlns="http://www.w3.org/2000/svg" xmlns:xlink="http://www.w3.org/1999/xlink" x="0px" y="0px" viewBox="0 0 48 48" style="enable-background:new 0 0 48 48;" width="28px" xml:space="preserve">
<style type="text/css">
    .menu-basket__path{fill: #31374C;}
</style>
<g>
    <path class="menu-basket__path" d="M43.3,41.2L32.2,30.1c2.4-2.9,3.9-6.6,3.9-10.6C36.1,10.4,28.7,3,19.6,3S3.1,10.4,3.1,19.5S10.5,36,19.6,36
        c4.1,0,7.9-1.5,10.8-4.1L41.5,43c0.3,0.3,0.6,0.4,0.9,0.4s0.6-0.1,0.9-0.4C43.8,42.5,43.8,41.7,43.3,41.2z M19.6,33.6
        c-7.7,0-14-6.3-14-14s6.3-14,14-14s14,6.3,14,14S27.3,33.6,19.6,33.6z"></path>
    <path class="menu-basket__path" d="M20.3,8.9C14.1,8.9,9,13.9,9,20.2c0,0.6,0.5,1.2,1.2,1.2s1.2-0.6,1.3-1.3c0-4.8,3.9-8.8,8.8-8.8
        c0.6,0,1.2-0.6,1.2-1.2S21,8.9,20.3,8.9z"></path>
</g>
</svg>