<svg class="menu-search menu-icon" version="1.1" id="Capa_1" xmlns="http://www.w3.org/2000/svg" xmlns:xlink="http://www.w3.org/1999/xlink" x="0px" y="0px" viewBox="0 0 48 48" style="enable-background:new 0 0 48 48;" width="28px" xml:space="preserve">
<path fill="currentColor" class="menu-search__path" d="M45.2,18.5h-4.1L34.7,4.9c-1-2-3.4-2.9-5.4-1.9s-2.9,3.4-1.9,5.4l4.7,10.1H16.7l4.7-10c1-2,0.1-4.4-1.9-5.4
    S15.1,3,14.1,5L7.7,18.5H3c-0.9,0-1.7,0.8-1.7,1.7v4.1C1.3,25.2,2.1,26,3,26h1.4c0,0.1,0,0.1,0,0.2L6.7,41c0.1,1.2,1.2,2.2,2.5,2.2
    h7.2h14.9h7.3c1.2,0,2.3-1,2.5-2.2l2.3-14.8c0-0.1,0-0.1,0-0.2h1.8c0.9,0,1.7-0.8,1.7-1.7v-4.1C46.9,19.3,46.1,18.5,45.2,18.5z
        M29.5,7.3c-0.4-0.8,0-1.8,0.8-2.2c0.8-0.4,1.8,0,2.2,0.8l5.9,12.6h-3.6L29.5,7.3z M16.3,5.9c0.4-0.8,1.4-1.2,2.2-0.8
    c0.8,0.4,1.2,1.4,0.8,2.2L14,18.5h-3.6L16.3,5.9z M38.6,40.7C38.6,40.8,38.6,40.8,38.6,40.7L9.1,40.8v-0.1L6.8,26H41L38.6,40.7z
        M44.5,23.6H3.7v-2.7h40.8V23.6z"></path>
</svg>