<svg class="who-we-are--icons--lists--img" version="1.1" id="Layer_1" xmlns="http://www.w3.org/2000/svg" xmlns:xlink="http://www.w3.org/1999/xlink" x="0px" y="0px" viewBox="0 0 160.4 160.4" style="enable-background:new 0 0 160.4 160.4;" xml:space="preserve">
    <style type="text/css">
        .st0{fill-rule:evenodd;clip-rule:evenodd;fill:#BFD1E0;}
        .st1{fill:#32374A;}
    </style>
    <g id="Layer_2_00000124840480060042639660000014013378755618804876_">
        <circle class="st0" cx="80.2" cy="80.2" r="80"></circle>
    </g>
    <g>
        <path class="st1" d="M13.7,112.1C19.1,99.7,32,97.6,44.3,97.9c12.5,0.3,24.1,0.4,35.2-6.3C88.9,86,96.6,78.5,101,68.2
            c5-11.8,10-24.2,13.3-36.5c0.3-1.3-0.5-2.7-1.8-3c-0.4-0.1-0.8-0.1-1.2,0c-3.4,0.7-7.3,0.2-10.8,0.4c-3.3,0.1-6.6,0.3-9.8,0.6
            c-5.9,0.5-11.8,1.3-17.7,2.3C62.4,33.7,51.6,36.2,42.5,42C26.7,52.1,17.7,74.2,22.9,92.5c0.3,1,1.3,1.5,2.3,1.2
            c0.7-0.2,1.3-0.9,1.3-1.7c-0.1-8.9-0.2-17.7,2.9-26.2c3.3-9.2,9.9-16.8,18.5-21.4c8.6-4.6,18.3-6.7,27.9-8.3
            c5.7-1,11.5-1.7,17.3-2.2c5.6-0.5,12.7-1.8,18.2-0.5l-1.5-3.6c-5.7,11.6-9.3,24.2-14.3,36.1c-4.8,11.4-15.5,20.6-27.2,24.6
            c-11.9,4.1-25,1.1-37.1,4.5c-8.1,2.3-16.7,8.1-17.8,17.1C13.5,112.2,13.6,112.2,13.7,112.1L13.7,112.1z"></path>
        <path class="st1" d="M91.3,45.2C78,48.3,66,55.3,54.8,63C43.4,70.6,33,79.6,23.8,89.8c-0.6,0.6-0.6,1.6,0.1,2.2
            c0.6,0.6,1.5,0.6,2.1,0c9.7-9.6,20.1-18.3,31.2-26.1C68.3,58.4,80.1,52.4,91.3,45.2C91.3,45.3,91.3,45.2,91.3,45.2L91.3,45.2z"></path>
        <path class="st1" d="M112.5,50.1c3.6,1.9,7.6,3.1,11.7,3.4l-2.3-1.7c2.7,9.1,7.4,17.4,11.9,25.7c4.4,8.2,3.6,18.2,3.5,27.2l2.9-2.9
            c-3.2,0.1-6.4,0-9.6,0.1c-3.6,0.1-3.6,5.7,0,5.6c3.2-0.1,6.4,0.1,9.6,0.1c1.6,0,2.8-1.3,2.9-2.9c0.2-8.8,0.9-19.8-3.4-27.9
            c-4.6-8.7-9.7-17.1-13.2-26.3c-0.3-1-1.2-1.7-2.3-1.7c-4-0.1-7.6-0.6-11.5,0.3c-0.3,0.1-0.5,0.4-0.4,0.7
            C112.3,49.9,112.3,50,112.5,50.1L112.5,50.1z"></path>
        <path class="st1" d="M100.5,102.6c-5.7,5.7-2.2,14.2,3.8,18.1c6.2,4.1,14.5,2.8,19.1-3c4.3-5.6,3.4-14.2-1.7-19
            c-4.1-3.8-15.4-6.8-18.6-0.3c-0.5,0.8-0.3,1.9,0.5,2.4c0.4,0.3,1,0.4,1.4,0.2c4.6-0.8,8.4-2.4,12.5,1c3.4,2.8,4.4,7.6,2.6,11.6
            c-2.3,4.6-8,6.5-12.6,4.2c0,0,0,0,0,0c-5.5-2.8-7.5-8.9-6.2-14.7c0.1-0.3-0.1-0.6-0.4-0.7C100.8,102.5,100.6,102.5,100.5,102.6
            L100.5,102.6z"></path>
        <path class="st1" d="M56.5,105.5c5.4,2.3,12.7,1.2,18.5,1.3c5.8,0.1,13,1.3,18.5-0.4c0.9-0.3,1.4-1.3,1.1-2.2
            c-0.2-0.5-0.6-0.9-1.1-1.1c-5.5-1.8-12.7-0.5-18.5-0.3c-5.8,0.2-13.1-0.9-18.5,1.2c-0.4,0.1-0.6,0.5-0.5,0.9
            C56.1,105.2,56.2,105.4,56.5,105.5z"></path>
        <path class="st1" d="M36.3,95.9c-3.2-1.2-6.8,2.5-8.5,4.8c-2.5,3.3-3.6,7.5-2.9,11.5c1.3,8.2,9.8,13.2,17.7,11
            c7.9-2.2,12.9-11.2,10.7-19.1c-2.2-7.9-12-12.9-19.2-7.7c-0.7,0.4-0.9,1.2-0.5,1.9c0.4,0.7,1.2,0.9,1.9,0.5l0,0
            c14.4-6.2,18,20,3,20.4c-6.3,0.2-10.8-5.4-9.8-11.6c0.6-2.9,2.1-5.5,4.4-7.4c1.4-1.3,2.9-1.8,3.5-3.7C36.7,96.2,36.6,96,36.3,95.9
            L36.3,95.9z"></path>
        <path class="st1" d="M109.2,62.2c-1.3,3.6-1,8.6-0.3,12.4c0.8,4,4.7,3.2,7.8,3c2.4-0.2,7.4,0.8,8.1-2.4c0.4-1.7-0.4-3.8-0.6-5.5
            c-0.4-2.8-0.7-5.5-1.1-8.3c0-1-0.8-1.8-1.8-1.8c-2.3,0.1-4.6,0-7,0.1c-2.9,0.1-2.9,4.8,0,4.5c2.3-0.2,4.6-0.7,7-1l-1.7-1.3
            c0.5,3.1,0.9,6.3,1.3,9.4l0.3,2.2c1.6,0.1,1.6,0.2,0.1,0.2c-1.5,0.1-3,0.1-4.5,0.1h-2.2c-0.9,0.3-1.4,0.1-1.5-0.9
            c-0.5-0.8-0.2-2.7-0.4-3.7c-0.2-2.5-0.8-4.9-1.9-7.1c-0.2-0.4-0.7-0.5-1.1-0.3C109.4,61.9,109.3,62,109.2,62.2L109.2,62.2z"></path>
    </g>
    </svg>