<svg class="menu-my_account menu-icon" version="1.1" id="Icons" xmlns="http://www.w3.org/2000/svg" xmlns:xlink="http://www.w3.org/1999/xlink" x="0px" y="0px" viewBox="0 0 48 48" style="enable-background:new 0 0 48 48;" width="28px" xml:space="preserve">
    <style type="text/css">
        .menu-my_account__path{fill: #31374C;}
    </style>
    <path class="menu-my_account__path" d="M33,23.2c2.2-2.3,3.5-5.3,3.5-8.7c0-6.8-5.6-12.4-12.4-12.4S11.7,7.8,11.7,14.6c0,3.5,1.4,6.6,3.8,8.9
        C12.2,25,4.3,29.8,3.7,41c0,0.6,0.2,1.3,0.7,1.8c0.4,0.5,1.1,0.8,1.8,0.8h5.6h25.5H43c0.7,0,1.3-0.3,1.9-0.7
        c0.5-0.5,0.7-1.1,0.7-1.8C45,28.8,35.4,24.2,33,23.2z M14.2,14.5c0-5.4,4.4-9.9,9.9-9.9S34,9.1,34,14.5s-4.4,9.9-9.9,9.9
        C18.7,24.4,14.2,19.9,14.2,14.5z M17.7,25.3L17.7,25.3c1.9,1.1,4.1,1.7,6.4,1.7c2.5,0,4.8-0.7,6.7-2c2,0.7,11.6,5,12.2,16.1H6.2
        C6.9,28.8,17.3,25.4,17.7,25.3z"></path>
    </svg>